<svg width="153" height="104" viewBox="0 0 153 104" fill="none" xmlns="http://www.w3.org/2000/svg">
<rect x="0.5" y="0.5" width="151.71" height="103" rx="15.5" fill="white"/>
<g clip-path="url(#clip0_284_732)">
<path fill-rule="evenodd" clip-rule="evenodd" d="M57.3082 63.7618C55.8355 63.7618 54.4981 63.7717 53.1612 63.7481C53.0097 63.7455 52.8299 63.583 52.716 63.4492C49.7931 60.0127 46.8771 56.5699 43.9597 53.1284C43.8653 53.0172 43.7677 52.9085 43.5932 52.7087V63.7286H40V40.0333H43.5568V50.9035C43.7507 50.6843 43.8575 50.5744 43.9521 50.455C46.6095 47.1052 49.2685 43.7568 51.9162 40.3994C52.1369 40.1196 52.3581 39.993 52.7244 40.0003C53.9605 40.0251 55.1974 40.0099 56.5707 40.0099C53.3264 43.9563 50.146 47.8252 46.9529 51.7092C50.3897 55.7094 53.8058 59.6854 57.3082 63.7618Z" fill="#0F0F0F"/>
<path fill-rule="evenodd" clip-rule="evenodd" d="M92.7405 55.5453C92.7332 54.4484 92.5614 53.6037 92.2047 52.7971C90.7607 49.5318 86.6025 48.8397 84.3053 51.4826C82.6697 53.3647 82.4673 56.4568 83.8432 58.5391C85.2742 60.7044 87.9017 61.43 90.058 60.1995C91.9236 59.1349 92.6609 57.4049 92.7405 55.5453ZM92.3638 48.4144V40.068H95.7205V63.7822C94.9501 63.7822 94.1768 63.7908 93.4045 63.7698C93.3221 63.7675 93.2211 63.602 93.1688 63.493C92.96 63.0574 92.767 62.6141 92.5485 62.1298C91.5429 63.1116 90.3691 63.6353 89.0485 63.8725C85.0914 64.5835 81.1938 62.2604 80.0276 58.4013C79.0559 55.1861 79.3997 52.1342 81.5641 49.4607C83.7964 46.7037 87.8757 45.8324 90.8805 47.4167C91.3908 47.6857 91.8453 48.0619 92.3638 48.4144Z" fill="#0F0F0F"/>
<path fill-rule="evenodd" clip-rule="evenodd" d="M109.427 53.9744C109.44 51.8187 107.344 49.9012 104.967 49.8624C102.598 49.8238 100.557 51.6943 100.504 53.9744H109.427ZM100.486 56.8365C100.569 58.5327 101.976 60.1701 103.724 60.6061C105.616 61.0782 107.242 60.624 108.554 59.1393C108.65 59.0303 108.807 58.9084 108.937 58.9061C110.039 58.8876 111.141 58.8954 112.302 58.8954C111.877 60.0325 111.278 60.9985 110.465 61.8248C108.913 63.4033 106.989 64.0164 104.818 63.9765C100.757 63.9019 97.4598 60.8725 96.968 56.8022C96.6859 54.4684 96.9801 52.2516 98.2811 50.2654C100.007 47.6297 102.49 46.3779 105.62 46.7118C108.703 47.0403 110.801 48.8164 111.989 51.6449C112.656 53.233 112.91 54.9029 112.544 56.6243C112.532 56.6799 112.512 56.7336 112.481 56.8365H100.486Z" fill="#0F0F0F"/>
<path fill-rule="evenodd" clip-rule="evenodd" d="M78.2576 63.7674H74.8903V63.2551C74.8894 60.14 74.9005 57.025 74.8827 53.9102C74.8729 52.1876 73.6621 50.5561 72.072 50.0456C69.7683 49.3059 67.2552 50.8795 66.85 53.324C66.7948 53.6569 66.7749 53.9993 66.7742 54.3374C66.7685 57.2899 66.7708 60.2426 66.7708 63.1952V63.7557H63.4256V46.8505C64.1873 46.8505 64.9478 46.8402 65.7072 46.8638C65.8017 46.8668 65.9204 47.036 65.9771 47.1529C66.1878 47.5862 66.3771 48.0296 66.5898 48.5029C68.261 46.9205 70.2431 46.4751 72.3916 46.7126C75.1788 47.0208 77.5088 49.2363 78.0591 52.0442C78.186 52.6914 78.2615 53.3593 78.2661 54.0183C78.2873 57.148 78.276 60.2779 78.2754 63.4076C78.2754 63.5102 78.2655 63.613 78.2576 63.7674Z" fill="#0F0F0F"/>
<path fill-rule="evenodd" clip-rule="evenodd" d="M58.1755 63.7669H61.5089V46.8623H58.1755V63.7669Z" fill="#0F0F0F"/>
<path fill-rule="evenodd" clip-rule="evenodd" d="M61.9098 42.1256C61.9069 43.2638 60.9594 44.2051 59.8258 44.1958C58.724 44.187 57.7726 43.2384 57.7594 42.1361C57.7459 41.0269 58.722 40.0422 59.8373 40.0396C60.9658 40.0366 61.9126 40.9897 61.9098 42.1256Z" fill="#0F0F0F"/>
</g>
<rect x="0.5" y="0.5" width="151.71" height="103" rx="15.5" stroke="#DBDBDB"/>
<defs>
<clipPath id="clip0_284_732">
<rect width="72.71" height="24" fill="white" transform="translate(40 40)"/>
</clipPath>
</defs>
</svg>
